<svg width="50" height="50" viewBox="0 0 50 50" fill="none" xmlns="http://www.w3.org/2000/svg">
<rect width="50" height="50" rx="10" fill="#455A64"/>
<path d="M34.5 17.472C33.98 17.2987 33.252 17.1253 32.316 16.952C31.4147 16.744 30.3573 16.64 29.144 16.64C28.4507 16.64 27.7053 16.7093 26.908 16.848C26.1453 16.9867 25.608 17.108 25.296 17.212V39H19.004V13.104C20.2173 12.6533 21.7253 12.2373 23.528 11.856C25.3653 11.44 27.3933 11.232 29.612 11.232C30.028 11.232 30.5133 11.2667 31.068 11.336C31.6227 11.3707 32.1773 11.44 32.732 11.544C33.2867 11.6133 33.824 11.7173 34.344 11.856C34.864 11.96 35.28 12.064 35.592 12.168L34.5 17.472Z" fill="#27DEBF"/>
<path d="M34.5 17.472L34.1838 18.4207L35.2523 18.7769L35.4795 17.6737L34.5 17.472ZM32.316 16.952L32.0911 17.9264L32.1124 17.9313L32.1339 17.9353L32.316 16.952ZM26.908 16.848L26.7367 15.8628L26.7291 15.8641L26.908 16.848ZM25.296 17.212L24.9798 16.2633L24.296 16.4912V17.212H25.296ZM25.296 39V40H26.296V39H25.296ZM19.004 39H18.004V40H19.004V39ZM19.004 13.104L18.6558 12.1666L18.004 12.4087V13.104H19.004ZM23.528 11.856L23.735 12.8343L23.7419 12.8329L23.7488 12.8313L23.528 11.856ZM31.068 11.336L30.944 12.3283L30.9747 12.3321L31.0056 12.3341L31.068 11.336ZM32.732 11.544L32.5477 12.5269L32.5777 12.5325L32.608 12.5363L32.732 11.544ZM34.344 11.856L34.0863 12.8222L34.1169 12.8304L34.1479 12.8366L34.344 11.856ZM35.592 12.168L36.5715 12.3697L36.7505 11.5001L35.9082 11.2193L35.592 12.168ZM34.8162 16.5233C34.2319 16.3285 33.4517 16.1453 32.4981 15.9687L32.1339 17.9353C33.0523 18.1054 33.7281 18.2688 34.1838 18.4207L34.8162 16.5233ZM32.5409 15.9776C31.5471 15.7483 30.411 15.64 29.144 15.64V17.64C30.3036 17.64 31.2823 17.7397 32.0911 17.9264L32.5409 15.9776ZM29.144 15.64C28.3847 15.64 27.5815 15.7159 26.7367 15.8628L27.0793 17.8332C27.8292 17.7028 28.5167 17.64 29.144 17.64V15.64ZM26.7291 15.8641C25.9653 16.003 25.3657 16.1347 24.9798 16.2633L25.6122 18.1607C25.8503 18.0813 26.3254 17.9703 27.0869 17.8319L26.7291 15.8641ZM24.296 17.212V39H26.296V17.212H24.296ZM25.296 38H19.004V40H25.296V38ZM20.004 39V13.104H18.004V39H20.004ZM19.3522 14.0414C20.5048 13.6133 21.962 13.2094 23.735 12.8343L23.321 10.8776C21.4887 11.2653 19.9299 11.6933 18.6558 12.1666L19.3522 14.0414ZM23.7488 12.8313C25.5022 12.4343 27.4549 12.232 29.612 12.232V10.232C27.3318 10.232 25.2284 10.4457 23.3072 10.8807L23.7488 12.8313ZM29.612 12.232C29.9752 12.232 30.4175 12.2625 30.944 12.3283L31.192 10.3437C30.6092 10.2709 30.0808 10.232 29.612 10.232V12.232ZM31.0056 12.3341C31.5188 12.3661 32.0327 12.4303 32.5477 12.5269L32.9163 10.5611C32.322 10.4497 31.7266 10.3752 31.1304 10.3379L31.0056 12.3341ZM32.608 12.5363C33.1193 12.6002 33.6119 12.6957 34.0863 12.8222L34.6017 10.8898C34.0361 10.7389 33.4541 10.6265 32.856 10.5517L32.608 12.5363ZM34.1479 12.8366C34.6486 12.9367 35.0194 13.0312 35.2758 13.1167L35.9082 11.2193C35.5406 11.0968 35.0794 10.9833 34.5401 10.8754L34.1479 12.8366ZM34.6125 11.9663L33.5205 17.2703L35.4795 17.6737L36.5715 12.3697L34.6125 11.9663Z" fill="#00C8AC"/>
</svg>
